<svg width="800" height="600" viewBox="0 0 800 600" fill="none" xmlns="http://www.w3.org/2000/svg">
  <defs>
    <linearGradient id="flutterBg1" x1="0%" y1="0%" x2="100%" y2="100%">
      <stop offset="0%" style="stop-color:#0f172a"/>
      <stop offset="100%" style="stop-color:#1e293b"/>
    </linearGradient>
    <linearGradient id="greenAccent" x1="0%" y1="0%" x2="100%" y2="0%">
      <stop offset="0%" style="stop-color:#10b981"/>
      <stop offset="100%" style="stop-color:#34d399"/>
    </linearGradient>
    <filter id="shadow1" x="-20%" y="-20%" width="140%" height="140%">
      <feDropShadow dx="0" dy="10" stdDeviation="20" flood-color="#10b981" flood-opacity="0.3"/>
    </filter>
  </defs>
  
  <!-- Background -->
  <rect width="800" height="600" fill="url(#flutterBg1)"/>
  
  <!-- Decorative circles -->
  <circle cx="700" cy="100" r="150" fill="#10b981" opacity="0.1"/>
  <circle cx="100" cy="500" r="200" fill="#34d399" opacity="0.08"/>
  
  <!-- Phone Mockup - Centered -->
  <g transform="translate(280, 50)" filter="url(#shadow1)">
    <!-- Phone Frame -->
    <rect width="240" height="500" rx="30" fill="#1a1a1a"/>
    <rect x="8" y="8" width="224" height="484" rx="25" fill="#0f172a"/>
    
    <!-- Notch -->
    <rect x="80" y="12" width="80" height="24" rx="12" fill="#1a1a1a"/>
    
    <!-- Header -->
    <text x="120" y="70" font-family="Arial, sans-serif" font-size="16" fill="white" font-weight="bold" text-anchor="middle">Expense Tracker</text>
    
    <!-- Balance Card -->
    <rect x="20" y="90" width="200" height="120" rx="16" fill="url(#greenAccent)"/>
    <text x="35" y="120" font-family="Arial, sans-serif" font-size="11" fill="white" opacity="0.8">Total Balance</text>
    <text x="35" y="155" font-family="Arial, sans-serif" font-size="28" fill="white" font-weight="bold">$24,562</text>
    <text x="35" y="180" font-family="Arial, sans-serif" font-size="10" fill="white" opacity="0.8">+12.5% this month</text>
    
    <!-- Chart Area -->
    <rect x="20" y="225" width="200" height="100" rx="12" fill="#1e293b"/>
    <text x="35" y="250" font-family="Arial, sans-serif" font-size="12" fill="white">Spending Overview</text>
    <!-- Bar Chart -->
    <rect x="35" y="290" width="20" height="25" rx="4" fill="#10b981"/>
    <rect x="65" y="280" width="20" height="35" rx="4" fill="#10b981"/>
    <rect x="95" y="270" width="20" height="45" rx="4" fill="#10b981"/>
    <rect x="125" y="285" width="20" height="30" rx="4" fill="#10b981"/>
    <rect x="155" y="265" width="20" height="50" rx="4" fill="#34d399"/>
    <rect x="185" y="295" width="20" height="20" rx="4" fill="#10b981"/>
    
    <!-- Transaction List -->
    <rect x="20" y="340" width="200" height="50" rx="10" fill="#1e293b"/>
    <circle cx="45" cy="365" r="15" fill="#ef4444" opacity="0.2"/>
    <text x="42" y="370" font-family="Arial, sans-serif" font-size="14" fill="#ef4444" text-anchor="middle">🛒</text>
    <text x="70" y="360" font-family="Arial, sans-serif" font-size="11" fill="white">Shopping</text>
    <text x="70" y="375" font-family="Arial, sans-serif" font-size="9" fill="#64748b">Today, 2:30 PM</text>
    <text x="200" y="368" font-family="Arial, sans-serif" font-size="12" fill="#ef4444" text-anchor="end">-$85.00</text>
    
    <rect x="20" y="400" width="200" height="50" rx="10" fill="#1e293b"/>
    <circle cx="45" cy="425" r="15" fill="#10b981" opacity="0.2"/>
    <text x="42" y="430" font-family="Arial, sans-serif" font-size="14" fill="#10b981" text-anchor="middle">💰</text>
    <text x="70" y="420" font-family="Arial, sans-serif" font-size="11" fill="white">Salary</text>
    <text x="70" y="435" font-family="Arial, sans-serif" font-size="9" fill="#64748b">Dec 1, 9:00 AM</text>
    <text x="200" y="428" font-family="Arial, sans-serif" font-size="12" fill="#10b981" text-anchor="end">+$3,500</text>
    
    <!-- Bottom Nav -->
    <rect x="20" y="460" width="200" height="30" rx="15" fill="#1e293b"/>
    <circle cx="55" cy="475" r="8" fill="#10b981"/>
    <circle cx="95" cy="475" r="8" fill="#475569"/>
    <circle cx="135" cy="475" r="8" fill="#475569"/>
    <circle cx="175" cy="475" r="8" fill="#475569"/>
  </g>
  
  <!-- Feature Labels -->
  <g transform="translate(50, 120)">
    <rect width="180" height="60" rx="12" fill="#1e293b" opacity="0.8"/>
    <text x="20" y="25" font-family="Arial, sans-serif" font-size="12" fill="#10b981" font-weight="bold">✓ Budget Tracking</text>
    <text x="20" y="45" font-family="Arial, sans-serif" font-size="10" fill="#94a3b8">Smart spending limits</text>
  </g>
  
  <g transform="translate(50, 200)">
    <rect width="180" height="60" rx="12" fill="#1e293b" opacity="0.8"/>
    <text x="20" y="25" font-family="Arial, sans-serif" font-size="12" fill="#10b981" font-weight="bold">✓ Visual Analytics</text>
    <text x="20" y="45" font-family="Arial, sans-serif" font-size="10" fill="#94a3b8">Beautiful charts &amp; graphs</text>
  </g>
  
  <g transform="translate(50, 280)">
    <rect width="180" height="60" rx="12" fill="#1e293b" opacity="0.8"/>
    <text x="20" y="25" font-family="Arial, sans-serif" font-size="12" fill="#10b981" font-weight="bold">✓ Cloud Sync</text>
    <text x="20" y="45" font-family="Arial, sans-serif" font-size="10" fill="#94a3b8">Access from anywhere</text>
  </g>
  
  <g transform="translate(570, 120)">
    <rect width="180" height="60" rx="12" fill="#1e293b" opacity="0.8"/>
    <text x="20" y="25" font-family="Arial, sans-serif" font-size="12" fill="#34d399" font-weight="bold">✓ Categories</text>
    <text x="20" y="45" font-family="Arial, sans-serif" font-size="10" fill="#94a3b8">Organize by type</text>
  </g>
  
  <g transform="translate(570, 200)">
    <rect width="180" height="60" rx="12" fill="#1e293b" opacity="0.8"/>
    <text x="20" y="25" font-family="Arial, sans-serif" font-size="12" fill="#34d399" font-weight="bold">✓ Dark Mode</text>
    <text x="20" y="45" font-family="Arial, sans-serif" font-size="10" fill="#94a3b8">Easy on the eyes</text>
  </g>
  
  <g transform="translate(570, 280)">
    <rect width="180" height="60" rx="12" fill="#1e293b" opacity="0.8"/>
    <text x="20" y="25" font-family="Arial, sans-serif" font-size="12" fill="#34d399" font-weight="bold">✓ Notifications</text>
    <text x="20" y="45" font-family="Arial, sans-serif" font-size="10" fill="#94a3b8">Budget alerts</text>
  </g>
  
  <!-- Tech Stack -->
  <g transform="translate(280, 560)">
    <rect x="0" y="0" width="60" height="24" rx="12" fill="#02569B"/>
    <text x="30" y="16" font-family="Arial, sans-serif" font-size="10" fill="white" text-anchor="middle">Flutter</text>
    <rect x="70" y="0" width="50" height="24" rx="12" fill="#0175C2"/>
    <text x="95" y="16" font-family="Arial, sans-serif" font-size="10" fill="white" text-anchor="middle">Dart</text>
    <rect x="130" y="0" width="60" height="24" rx="12" fill="#FFCA28"/>
    <text x="160" y="16" font-family="Arial, sans-serif" font-size="10" fill="#1a1a1a" text-anchor="middle">Firebase</text>
    <rect x="200" y="0" width="50" height="24" rx="12" fill="#6B52AE"/>
    <text x="225" y="16" font-family="Arial, sans-serif" font-size="10" fill="white" text-anchor="middle">Hive</text>
  </g>
</svg>