<svg width="800" height="500" viewBox="0 0 800 500" fill="none" xmlns="http://www.w3.org/2000/svg">
  <defs>
    <linearGradient id="prodBg" x1="0%" y1="0%" x2="100%" y2="100%">
      <stop offset="0%" style="stop-color:#1a1a2e;stop-opacity:1" />
      <stop offset="100%" style="stop-color:#0f0f1a;stop-opacity:1" />
    </linearGradient>
    <linearGradient id="prodAccent" x1="0%" y1="0%" x2="100%" y2="0%">
      <stop offset="0%" style="stop-color:#8b5cf6;stop-opacity:1" />
      <stop offset="100%" style="stop-color:#a855f7;stop-opacity:1" />
    </linearGradient>
  </defs>
  
  <!-- Background -->
  <rect width="800" height="500" fill="url(#prodBg)"/>
  
  <!-- Browser Frame -->
  <rect x="40" y="30" width="720" height="440" rx="12" fill="#1f1f2e" stroke="#333" stroke-width="1"/>
  
  <!-- Browser Header -->
  <rect x="40" y="30" width="720" height="40" rx="12" fill="#2a2a3e"/>
  <circle cx="70" cy="50" r="6" fill="#ff5f57"/>
  <circle cx="92" cy="50" r="6" fill="#febc2e"/>
  <circle cx="114" cy="50" r="6" fill="#28c840"/>
  <rect x="200" y="40" width="400" height="20" rx="4" fill="#1f1f2e"/>
  <text x="400" y="54" font-family="Arial" font-size="11" fill="#888" text-anchor="middle">evans.fayastech.com</text>
  
  <!-- Sidebar -->
  <rect x="40" y="70" width="180" height="400" fill="#16162a"/>
  <rect x="55" y="90" width="150" height="35" rx="8" fill="url(#prodAccent)"/>
  <text x="130" y="113" font-family="Arial" font-size="12" fill="white" text-anchor="middle" font-weight="bold">Dashboard</text>
  
  <text x="70" y="155" font-family="Arial" font-size="11" fill="#888">Projects</text>
  <text x="70" y="185" font-family="Arial" font-size="11" fill="#888">Workers</text>
  <text x="70" y="215" font-family="Arial" font-size="11" fill="#888">Payments</text>
  <text x="70" y="245" font-family="Arial" font-size="11" fill="#888">Reports</text>
  <text x="70" y="275" font-family="Arial" font-size="11" fill="#888">Settings</text>
  
  <!-- Main Content Area -->
  <rect x="235" y="85" width="510" height="370" rx="8" fill="#1a1a2e"/>
  
  <!-- Stats Cards -->
  <rect x="250" y="100" width="155" height="80" rx="8" fill="#252540"/>
  <text x="265" y="125" font-family="Arial" font-size="11" fill="#888">Total Projects</text>
  <text x="265" y="160" font-family="Arial" font-size="28" fill="white" font-weight="bold">247</text>
  
  <rect x="420" y="100" width="155" height="80" rx="8" fill="#252540"/>
  <text x="435" y="125" font-family="Arial" font-size="11" fill="#888">Active Workers</text>
  <text x="435" y="160" font-family="Arial" font-size="28" fill="#8b5cf6" font-weight="bold">89</text>
  
  <rect x="590" y="100" width="140" height="80" rx="8" fill="#252540"/>
  <text x="605" y="125" font-family="Arial" font-size="11" fill="#888">This Month</text>
  <text x="605" y="160" font-family="Arial" font-size="24" fill="#10b981" font-weight="bold">$45.2K</text>
  
  <!-- Chart Area -->
  <rect x="250" y="195" width="320" height="160" rx="8" fill="#252540"/>
  <text x="265" y="220" font-family="Arial" font-size="12" fill="white" font-weight="bold">Revenue Overview</text>
  
  <!-- Simple Bar Chart -->
  <rect x="280" y="250" width="30" height="80" rx="4" fill="#8b5cf6" opacity="0.3"/>
  <rect x="280" y="280" width="30" height="50" rx="4" fill="#8b5cf6"/>
  <rect x="320" y="250" width="30" height="80" rx="4" fill="#8b5cf6" opacity="0.3"/>
  <rect x="320" y="260" width="30" height="70" rx="4" fill="#8b5cf6"/>
  <rect x="360" y="250" width="30" height="80" rx="4" fill="#8b5cf6" opacity="0.3"/>
  <rect x="360" y="270" width="30" height="60" rx="4" fill="#8b5cf6"/>
  <rect x="400" y="250" width="30" height="80" rx="4" fill="#8b5cf6" opacity="0.3"/>
  <rect x="400" y="240" width="30" height="90" rx="4" fill="#8b5cf6"/>
  <rect x="440" y="250" width="30" height="80" rx="4" fill="#8b5cf6" opacity="0.3"/>
  <rect x="440" y="255" width="30" height="75" rx="4" fill="#8b5cf6"/>
  <rect x="480" y="250" width="30" height="80" rx="4" fill="#10b981" opacity="0.3"/>
  <rect x="480" y="235" width="30" height="95" rx="4" fill="#10b981"/>
  
  <!-- Recent Activity -->
  <rect x="585" y="195" width="145" height="160" rx="8" fill="#252540"/>
  <text x="600" y="220" font-family="Arial" font-size="12" fill="white" font-weight="bold">Activity</text>
  <circle cx="608" cy="250" r="4" fill="#10b981"/>
  <text x="620" y="254" font-family="Arial" font-size="9" fill="#888">Payment sent</text>
  <circle cx="608" cy="275" r="4" fill="#8b5cf6"/>
  <text x="620" y="279" font-family="Arial" font-size="9" fill="#888">New worker</text>
  <circle cx="608" cy="300" r="4" fill="#f59e0b"/>
  <text x="620" y="304" font-family="Arial" font-size="9" fill="#888">Project update</text>
  
  <!-- Table -->
  <rect x="250" y="370" width="480" height="70" rx="8" fill="#252540"/>
  <text x="265" y="395" font-family="Arial" font-size="12" fill="white" font-weight="bold">Recent Projects</text>
  <text x="265" y="420" font-family="Arial" font-size="10" fill="#888">Film Production A</text>
  <text x="450" y="420" font-family="Arial" font-size="10" fill="#10b981">Active</text>
  <text x="550" y="420" font-family="Arial" font-size="10" fill="#888">$12,500</text>
</svg>