<svg width="800" height="500" viewBox="0 0 800 500" fill="none" xmlns="http://www.w3.org/2000/svg">
  <defs>
    <linearGradient id="streamBg" x1="0%" y1="0%" x2="100%" y2="100%">
      <stop offset="0%" style="stop-color:#0f0f0f;stop-opacity:1" />
      <stop offset="100%" style="stop-color:#1a0a1a;stop-opacity:1" />
    </linearGradient>
    <linearGradient id="streamAccent" x1="0%" y1="0%" x2="100%" y2="0%">
      <stop offset="0%" style="stop-color:#ec4899;stop-opacity:1" />
      <stop offset="100%" style="stop-color:#8b5cf6;stop-opacity:1" />
    </linearGradient>
  </defs>
  
  <!-- Background -->
  <rect width="800" height="500" fill="url(#streamBg)"/>
  
  <!-- Browser Frame -->
  <rect x="40" y="30" width="720" height="440" rx="12" fill="#0f0f0f" stroke="#2d2d2d" stroke-width="1"/>
  
  <!-- Browser Header -->
  <rect x="40" y="30" width="720" height="40" rx="12" fill="#1a1a1a"/>
  <circle cx="70" cy="50" r="6" fill="#ff5f57"/>
  <circle cx="92" cy="50" r="6" fill="#febc2e"/>
  <circle cx="114" cy="50" r="6" fill="#28c840"/>
  <rect x="200" y="40" width="400" height="20" rx="4" fill="#0f0f0f"/>
  <text x="400" y="54" font-family="Arial" font-size="11" fill="#6b7280" text-anchor="middle">stream.fayastech.com</text>
  
  <!-- Navigation -->
  <rect x="40" y="70" width="720" height="50" fill="#141414"/>
  <text x="70" y="100" font-family="Arial" font-size="22" fill="white" font-weight="bold">STREAM</text>
  <text x="160" y="100" font-family="Arial" font-size="22" fill="#ec4899" font-weight="bold">+</text>
  
  <text x="280" y="100" font-family="Arial" font-size="12" fill="white">Home</text>
  <text x="340" y="100" font-family="Arial" font-size="12" fill="#9ca3af">Movies</text>
  <text x="410" y="100" font-family="Arial" font-size="12" fill="#9ca3af">TV Shows</text>
  <text x="490" y="100" font-family="Arial" font-size="12" fill="#9ca3af">My List</text>
  
  <!-- Search -->
  <rect x="590" y="82" width="130" height="28" rx="14" fill="#2a2a2a"/>
  <text x="610" y="100" font-family="Arial" font-size="11" fill="#6b7280">🔍 Search...</text>
  
  <!-- Profile -->
  <rect x="730" y="82" width="28" height="28" rx="6" fill="url(#streamAccent)"/>
  <text x="744" y="100" font-family="Arial" font-size="12" fill="white" text-anchor="middle">F</text>
  
  <!-- Hero Video Player -->
  <rect x="55" y="135" width="490" height="275" rx="12" fill="#1a1a1a"/>
  <rect x="55" y="135" width="490" height="275" rx="12" fill="url(#streamAccent)" opacity="0.1"/>
  
  <!-- Video Thumbnail Effect -->
  <rect x="55" y="135" width="490" height="220" rx="12" fill="#2a2a2a"/>
  <text x="300" y="255" font-family="Arial" font-size="48" fill="#4b5563" text-anchor="middle">🎬</text>
  
  <!-- Play Button -->
  <circle cx="300" cy="245" r="35" fill="#ec4899" opacity="0.9"/>
  <text x="305" y="255" font-family="Arial" font-size="24" fill="white" text-anchor="middle">▶</text>
  
  <!-- Video Info -->
  <text x="70" y="380" font-family="Arial" font-size="18" fill="white" font-weight="bold">The Last Algorithm</text>
  <text x="70" y="402" font-family="Arial" font-size="11" fill="#9ca3af">2024 • Sci-Fi • 2h 15m • ⭐ 8.7</text>
  
  <!-- Progress Bar -->
  <rect x="70" y="365" width="460" height="3" rx="2" fill="#333"/>
  <rect x="70" y="365" width="150" height="3" rx="2" fill="url(#streamAccent)"/>
  
  <!-- Continue Watching Sidebar -->
  <rect x="560" y="135" width="185" height="275" rx="12" fill="#141414"/>
  <text x="580" y="165" font-family="Arial" font-size="14" fill="white" font-weight="bold">Continue Watching</text>
  
  <!-- Thumbnail 1 -->
  <rect x="575" y="180" width="75" height="45" rx="4" fill="#2a2a2a"/>
  <rect x="575" y="220" width="75" height="3" rx="2" fill="#333"/>
  <rect x="575" y="220" width="50" height="3" rx="2" fill="#ec4899"/>
  <text x="660" y="200" font-family="Arial" font-size="10" fill="white">Cyber Dreams</text>
  <text x="660" y="215" font-family="Arial" font-size="9" fill="#6b7280">S2 E5 • 32m left</text>
  
  <!-- Thumbnail 2 -->
  <rect x="575" y="240" width="75" height="45" rx="4" fill="#2a2a2a"/>
  <rect x="575" y="280" width="75" height="3" rx="2" fill="#333"/>
  <rect x="575" y="280" width="25" height="3" rx="2" fill="#8b5cf6"/>
  <text x="660" y="260" font-family="Arial" font-size="10" fill="white">Dark Matter</text>
  <text x="660" y="275" font-family="Arial" font-size="9" fill="#6b7280">S1 E8 • 45m left</text>
  
  <!-- Thumbnail 3 -->
  <rect x="575" y="300" width="75" height="45" rx="4" fill="#2a2a2a"/>
  <rect x="575" y="340" width="75" height="3" rx="2" fill="#333"/>
  <rect x="575" y="340" width="60" height="3" rx="2" fill="#10b981"/>
  <text x="660" y="320" font-family="Arial" font-size="10" fill="white">Code Wars</text>
  <text x="660" y="335" font-family="Arial" font-size="9" fill="#6b7280">Movie • 20m left</text>
  
  <!-- Trending Section -->
  <text x="55" y="440" font-family="Arial" font-size="14" fill="white" font-weight="bold">🔥 Trending Now</text>
  
  <!-- Trending Cards -->
  <rect x="55" y="450" width="100" height="15" rx="4" fill="#1a1a1a"/>
  <text x="65" y="461" font-family="Arial" font-size="9" fill="#9ca3af">#1 Neon Lights</text>
  
  <rect x="165" y="450" width="100" height="15" rx="4" fill="#1a1a1a"/>
  <text x="175" y="461" font-family="Arial" font-size="9" fill="#9ca3af">#2 Future City</text>
  
  <rect x="275" y="450" width="100" height="15" rx="4" fill="#1a1a1a"/>
  <text x="285" y="461" font-family="Arial" font-size="9" fill="#9ca3af">#3 AI Rising</text>
  
  <rect x="385" y="450" width="100" height="15" rx="4" fill="#1a1a1a"/>
  <text x="395" y="461" font-family="Arial" font-size="9" fill="#9ca3af">#4 Ghost Net</text>
  
  <rect x="495" y="450" width="100" height="15" rx="4" fill="#1a1a1a"/>
  <text x="505" y="461" font-family="Arial" font-size="9" fill="#9ca3af">#5 Zero Day</text>
  
  <rect x="605" y="450" width="100" height="15" rx="4" fill="#1a1a1a"/>
  <text x="615" y="461" font-family="Arial" font-size="9" fill="#9ca3af">#6 Quantum</text>
</svg>